<svg width="25" height="28" viewBox="0 0 25 28" fill="none" xmlns="http://www.w3.org/2000/svg">
<path d="M24.7183 17.5894L22.1154 14.9865V11.5385C22.1124 9.15561 21.226 6.85851 19.6275 5.09133C18.0291 3.32415 15.8321 2.21244 13.4615 1.97115V0H11.5385V1.97115C9.16786 2.21244 6.97092 3.32415 5.37247 5.09133C3.77402 6.85851 2.8876 9.15561 2.88462 11.5385V14.9865L0.281731 17.5894C0.101395 17.7697 5.4459e-05 18.0142 0 18.2692V21.1538C0 21.4089 0.101305 21.6534 0.281628 21.8338C0.461951 22.0141 0.706523 22.1154 0.961538 22.1154H7.69231V22.8625C7.67139 24.0823 8.10135 25.267 8.89979 26.1895C9.69823 27.1119 10.809 27.7073 12.0192 27.8615C12.6877 27.9278 13.3626 27.8535 14.0006 27.6433C14.6385 27.4331 15.2255 27.0916 15.7236 26.641C16.2217 26.1903 16.62 25.6404 16.8928 25.0266C17.1656 24.4128 17.3069 23.7486 17.3077 23.0769V22.1154H24.0385C24.2935 22.1154 24.538 22.0141 24.7184 21.8338C24.8987 21.6534 25 21.4089 25 21.1538V18.2692C24.9999 18.0142 24.8986 17.7697 24.7183 17.5894ZM15.3846 23.0769C15.3846 23.842 15.0807 24.5757 14.5397 25.1167C13.9988 25.6576 13.265 25.9615 12.5 25.9615C11.735 25.9615 11.0012 25.6576 10.4603 25.1167C9.9193 24.5757 9.61538 23.842 9.61538 23.0769V22.1154H15.3846V23.0769ZM23.0769 20.1923H1.92308V18.6673L4.52596 16.0644C4.7063 15.8841 4.80764 15.6396 4.80769 15.3846V11.5385C4.80769 9.49833 5.61813 7.54177 7.06072 6.09918C8.5033 4.65659 10.4599 3.84615 12.5 3.84615C14.5401 3.84615 16.4967 4.65659 17.9393 6.09918C19.3819 7.54177 20.1923 9.49833 20.1923 11.5385V15.3846C20.1924 15.6396 20.2937 15.8841 20.474 16.0644L23.0769 18.6673V20.1923Z" fill="#469D89"/>
</svg>
