<svg width="30" height="30" viewBox="0 0 30 30" fill="none" xmlns="http://www.w3.org/2000/svg">
<path d="M4.6875 4.375C4.51491 4.375 4.375 4.51491 4.375 4.6875V20.3125C4.375 20.4851 4.51491 20.625 4.6875 20.625H11.25V22.5H4.6875C3.47938 22.5 2.5 21.5206 2.5 20.3125V4.6875C2.5 3.47938 3.47938 2.5 4.6875 2.5H11.5625C12.7706 2.5 13.75 3.47938 13.75 4.6875V8.4375C13.75 8.61009 13.8899 8.75 14.0625 8.75H15.3125C16.5206 8.75 17.5 9.72937 17.5 10.9375V11.0272L15.625 12.7773V10.9375C15.625 10.7649 15.4851 10.625 15.3125 10.625H14.0625C12.8544 10.625 11.875 9.64563 11.875 8.4375V4.6875C11.875 4.51491 11.7351 4.375 11.5625 4.375H4.6875ZM7.5 7.1875C7.5 7.70526 7.08026 8.125 6.5625 8.125C6.04474 8.125 5.625 7.70526 5.625 7.1875C5.625 6.66974 6.04474 6.25 6.5625 6.25C7.08026 6.25 7.5 6.66974 7.5 7.1875ZM6.5625 11.875C7.08026 11.875 7.5 11.4553 7.5 10.9375C7.5 10.4197 7.08026 10 6.5625 10C6.04474 10 5.625 10.4197 5.625 10.9375C5.625 11.4553 6.04474 11.875 6.5625 11.875ZM7.5 14.6875C7.5 15.2052 7.08026 15.625 6.5625 15.625C6.04474 15.625 5.625 15.2052 5.625 14.6875C5.625 14.1698 6.04474 13.75 6.5625 13.75C7.08026 13.75 7.5 14.1698 7.5 14.6875ZM9.6875 8.125C10.2053 8.125 10.625 7.70526 10.625 7.1875C10.625 6.66974 10.2053 6.25 9.6875 6.25C9.16974 6.25 8.75 6.66974 8.75 7.1875C8.75 7.70526 9.16974 8.125 9.6875 8.125ZM10.625 10.9375C10.625 11.4553 10.2053 11.875 9.6875 11.875C9.16974 11.875 8.75 11.4553 8.75 10.9375C8.75 10.4197 9.16974 10 9.6875 10C10.2053 10 10.625 10.4197 10.625 10.9375ZM9.6875 15.625C10.2053 15.625 10.625 15.2052 10.625 14.6875C10.625 14.1698 10.2053 13.75 9.6875 13.75C9.16974 13.75 8.75 14.1698 8.75 14.6875C8.75 15.2052 9.16974 15.625 9.6875 15.625ZM21.4926 11.7982C20.6521 11.0138 19.3479 11.0138 18.5074 11.7982L13.1949 16.7565C12.7516 17.1702 12.5 17.7494 12.5 18.3558V25.625C12.5 26.6605 13.3395 27.5 14.375 27.5H16.875C17.9105 27.5 18.75 26.6605 18.75 25.625V22.5005H21.25V25.625C21.25 26.6605 22.0895 27.5 23.125 27.5H25.625C26.6605 27.5 27.5 26.6605 27.5 25.625V18.3558C27.5 17.7494 27.2484 17.1702 26.8051 16.7565L21.4926 11.7982ZM19.7868 13.1689C19.9069 13.0569 20.0931 13.0569 20.2133 13.1689L25.5258 18.1272C25.589 18.1864 25.625 18.2691 25.625 18.3558V25.625H23.125V22.5005C23.125 21.465 22.2855 20.6255 21.25 20.6255H18.75C17.7145 20.6255 16.875 21.465 16.875 22.5005V25.625H14.375V18.3558C14.375 18.2691 14.411 18.1864 14.4742 18.1272L19.7868 13.1689Z" fill="white"/>
</svg>
