<svg width="30" height="30" viewBox="0 0 30 30" fill="none" xmlns="http://www.w3.org/2000/svg">
<path d="M24.0636 13.7521C25.2717 13.7521 26.2511 14.7315 26.2511 15.9396V24.0646C26.2511 25.2727 25.2717 26.2521 24.0636 26.2521H18.4386C17.2305 26.2521 16.2511 25.2727 16.2511 24.0646V15.9396C16.2511 14.7315 17.2305 13.7521 18.4386 13.7521H24.0636ZM11.5864 18.7676C12.7945 18.7676 13.7738 19.747 13.7738 20.9551V24.0646C13.7738 25.2727 12.7945 26.2521 11.5864 26.2521H5.94336C4.73523 26.2521 3.75586 25.2727 3.75586 24.0646V20.9551C3.75586 19.747 4.73523 18.7676 5.94336 18.7676H11.5864ZM24.0636 15.6271H18.4386C18.266 15.6271 18.1261 15.767 18.1261 15.9396V24.0646C18.1261 24.2372 18.266 24.3771 18.4386 24.3771H24.0636C24.2362 24.3771 24.3761 24.2372 24.3761 24.0646V15.9396C24.3761 15.767 24.2362 15.6271 24.0636 15.6271ZM11.5864 20.6426H5.94336C5.77077 20.6426 5.63086 20.7825 5.63086 20.9551V24.0646C5.63086 24.2372 5.77077 24.3771 5.94336 24.3771H11.5864C11.759 24.3771 11.8989 24.2372 11.8989 24.0646V20.9551C11.8989 20.7825 11.759 20.6426 11.5864 20.6426ZM11.5684 3.75C12.7765 3.75 13.7558 4.72938 13.7558 5.9375V14.0625C13.7558 15.2102 12.872 16.1515 11.7478 16.2428L11.5684 16.25H5.94336C4.73523 16.25 3.75586 15.2706 3.75586 14.0625V5.9375C3.75586 4.72938 4.73523 3.75 5.94336 3.75H11.5684ZM11.5684 5.625H5.94336C5.77077 5.625 5.63086 5.76491 5.63086 5.9375V14.0625C5.63086 14.2351 5.77077 14.375 5.94336 14.375H11.5684L11.64 14.3667C11.7781 14.3344 11.8809 14.2104 11.8809 14.0625V5.9375C11.8809 5.76491 11.7409 5.625 11.5684 5.625ZM24.0636 3.75C25.2717 3.75 26.2511 4.72938 26.2511 5.9375V9.0625C26.2511 10.2706 25.2717 11.25 24.0636 11.25H18.4386C17.2305 11.25 16.2511 10.2706 16.2511 9.0625V5.9375C16.2511 4.72938 17.2305 3.75 18.4386 3.75H24.0636ZM18.4386 5.625C18.266 5.625 18.1261 5.76491 18.1261 5.9375V9.0625C18.1261 9.23509 18.266 9.375 18.4386 9.375H24.0636C24.2362 9.375 24.3761 9.23509 24.3761 9.0625V5.9375C24.3761 5.76491 24.2362 5.625 24.0636 5.625H18.4386Z" fill="white"/>
</svg>
