<svg width="30" height="30" viewBox="0 0 30 30" fill="none" xmlns="http://www.w3.org/2000/svg">
<path d="M9.375 8.125C9.375 7.43465 9.93465 6.875 10.625 6.875C11.3154 6.875 11.875 7.43465 11.875 8.125C11.875 8.81535 11.3154 9.375 10.625 9.375C9.93465 9.375 9.375 8.81535 9.375 8.125ZM10.625 15.625C9.93465 15.625 9.375 16.1846 9.375 16.875C9.375 17.5654 9.93465 18.125 10.625 18.125C11.3154 18.125 11.875 17.5654 11.875 16.875C11.875 16.1846 11.3154 15.625 10.625 15.625ZM9.375 12.5C9.375 11.8096 9.93465 11.25 10.625 11.25C11.3154 11.25 11.875 11.8096 11.875 12.5C11.875 13.1904 11.3154 13.75 10.625 13.75C9.93465 13.75 9.375 13.1904 9.375 12.5ZM15 6.875C14.3096 6.875 13.75 7.43465 13.75 8.125C13.75 8.81535 14.3096 9.375 15 9.375C15.6904 9.375 16.25 8.81535 16.25 8.125C16.25 7.43465 15.6904 6.875 15 6.875ZM13.75 12.5C13.75 11.8096 14.3096 11.25 15 11.25C15.6904 11.25 16.25 11.8096 16.25 12.5C16.25 13.1904 15.6904 13.75 15 13.75C14.3096 13.75 13.75 13.1904 13.75 12.5ZM5 5.3125C5 3.7592 6.2592 2.5 7.8125 2.5H17.8125C19.3658 2.5 20.625 3.7592 20.625 5.3125V11.8741H22.191C23.7442 11.8741 25.0035 13.1334 25.0035 14.6866V16.3784C24.4541 16.5331 23.9605 16.821 23.5597 17.2051C23.4549 16.8755 23.3091 16.5641 23.1285 16.277V14.6866C23.1285 14.1689 22.7087 13.7491 22.191 13.7491H19.6875C19.1698 13.7491 18.75 13.3294 18.75 12.8116V5.3125C18.75 4.79474 18.3302 4.375 17.8125 4.375H7.8125C7.29474 4.375 6.875 4.79474 6.875 5.3125V25H13.7522C13.7702 25.6296 13.8979 26.27 14.1551 26.875H5.9375C5.41974 26.875 5 26.4552 5 25.9375V5.3125ZM22.5 18.4375C22.5 19.9907 21.2407 21.25 19.6875 21.25C18.1342 21.25 16.875 19.9907 16.875 18.4375C16.875 16.8842 18.1342 15.625 19.6875 15.625C21.2407 15.625 22.5 16.8842 22.5 18.4375ZM24.375 24.8438C24.375 26.7894 23.0357 28.75 19.6875 28.75C16.3392 28.75 15 26.7967 15 24.8438C15 23.5494 15.8994 22.5 17.0089 22.5H22.3661C23.4756 22.5 24.375 23.5494 24.375 24.8438ZM25.9375 21.875C27.1456 21.875 28.125 20.8956 28.125 19.6875C28.125 18.4794 27.1456 17.5 25.9375 17.5C24.7294 17.5 23.75 18.4794 23.75 19.6875C23.75 20.8956 24.7294 21.875 25.9375 21.875ZM25.623 24.8438C25.623 25.7435 25.3999 26.6746 24.8949 27.4992C24.9314 27.4997 24.9681 27.5 25.0052 27.5C27.6839 27.5 28.7552 26.1276 28.7552 24.7656C28.7552 23.8595 28.0357 23.125 27.1481 23.125H25.2224C25.4823 23.6545 25.623 24.2491 25.623 24.8438Z" fill="white"/>
</svg>
