<svg width="30" height="30" viewBox="0 0 30 30" fill="none" xmlns="http://www.w3.org/2000/svg">
<path d="M17.9827 4.9993C17.827 3.5934 16.6349 2.5 15.1875 2.5H10.8125C9.36506 2.5 8.17301 3.5934 8.01724 4.9993L5.8125 5C4.2592 5 3 6.2592 3 7.8125V24.6875C3 26.2407 4.2592 27.5 5.8125 27.5H11.7517C11.7428 27.2594 11.7674 27.011 11.8303 26.7594L12.1139 25.625H5.8125C5.29474 25.625 4.875 25.2052 4.875 24.6875V7.8125C4.875 7.29474 5.29474 6.875 5.8125 6.875L8.47377 6.87525C8.97834 7.62887 9.83746 8.125 10.8125 8.125H15.1875C16.1625 8.125 17.0218 7.62884 17.5263 6.8752L20.1875 6.875C20.7052 6.875 21.125 7.29474 21.125 7.8125V14.8258C21.6714 14.3255 22.3201 13.9998 23 13.8485V7.8125C23 6.2592 21.7407 5 20.1875 5L17.9827 4.9993ZM17.9935 5.11994L18 5.3125C18 5.24778 17.9979 5.18356 17.9935 5.11994ZM10.8125 4.375H15.1875C15.7052 4.375 16.125 4.79474 16.125 5.3125C16.125 5.83026 15.7052 6.25 15.1875 6.25H10.8125C10.2947 6.25 9.875 5.83026 9.875 5.3125C9.875 4.79474 10.2947 4.375 10.8125 4.375ZM14.695 21.25H8C7.48224 21.25 7.0625 21.6698 7.0625 22.1875C7.0625 22.7052 7.48224 23.125 8 23.125H12.9788C13.1597 22.839 13.3725 22.5725 13.614 22.331L14.695 21.25ZM13 18.125H8C7.48224 18.125 7.0625 17.7052 7.0625 17.1875C7.0625 16.6698 7.48224 16.25 8 16.25H13C13.5177 16.25 13.9375 16.6698 13.9375 17.1875C13.9375 17.7052 13.5177 18.125 13 18.125ZM18 13.125H8C7.48224 13.125 7.0625 12.7052 7.0625 12.1875C7.0625 11.6697 7.48224 11.25 8 11.25H18C18.5177 11.25 18.9375 11.6697 18.9375 12.1875C18.9375 12.7052 18.5177 13.125 18 13.125ZM21.8749 15.8369L14.4967 23.2149C14.0666 23.645 13.7615 24.184 13.6139 24.7743L13.0417 27.0626C12.793 28.0578 13.6945 28.9592 14.6896 28.7104L16.978 28.1382C17.5681 27.9907 18.1071 27.6856 18.5374 27.2554L25.9154 19.8774C27.0311 18.7616 27.0311 16.9526 25.9154 15.8369C24.7996 14.721 22.9906 14.721 21.8749 15.8369Z" fill="white"/>
</svg>
