<svg width="26" height="21" viewBox="0 0 26 21" fill="none" xmlns="http://www.w3.org/2000/svg">
<path d="M8.62769 10.3739C9.31952 10.3739 9.88037 10.9348 9.88037 11.6266C9.88037 12.3185 9.31952 12.8793 8.62769 12.8793C7.93585 12.8793 7.375 12.3185 7.375 11.6266C7.375 10.9348 7.93585 10.3739 8.62769 10.3739ZM13 1.44163V9.12388L13.0006 9.75513L22.3025 9.75388L20.1495 7.59922C19.8168 7.26633 19.7865 6.7455 20.0589 6.37852L20.1498 6.2734C20.4826 5.94062 21.0034 5.91045 21.3704 6.18283L21.4755 6.27362L25.2213 10.0206C25.5538 10.3533 25.5843 10.8735 25.3125 11.2405L25.2219 11.3456L21.4761 15.0999C21.1105 15.4665 20.5169 15.4671 20.1504 15.1015C19.8171 14.769 19.7862 14.2483 20.0581 13.8809L20.1489 13.7756L22.29 11.6289L13.0006 11.6301L13 20.0614C13 20.6444 12.4735 21.086 11.8995 20.9846L1.27444 19.108C0.826512 19.0289 0.5 18.6396 0.5 18.1848V3.18642C0.5 2.72728 0.832512 2.33571 1.28559 2.26131L11.9106 0.516522C12.4814 0.422797 13 0.863222 13 1.44163ZM11.125 2.54563L2.375 3.98252V17.3984L11.125 18.9439V2.54563ZM14.25 19.1255L15.2065 19.1258L15.3337 19.1171C15.7919 19.0549 16.1447 18.6619 16.144 18.1866L16.135 12.8739H14.25V19.1255ZM14.2525 8.49892L14.25 6.9056V2.24891L15.1816 2.24892C15.6556 2.24892 16.0476 2.60082 16.1104 3.05781L16.1191 3.18487L16.1275 8.49892H14.2525Z" fill="white"/>
</svg>
