<svg width="31" height="30" viewBox="0 0 31 30" fill="none" xmlns="http://www.w3.org/2000/svg">
<path d="M22.3765 15.0001C26.1733 15.0001 29.2515 18.0781 29.2515 21.8751C29.2515 25.672 26.1733 28.7501 22.3765 28.7501C18.5795 28.7501 15.5015 25.672 15.5015 21.8751C15.5015 18.0781 18.5795 15.0001 22.3765 15.0001ZM15.5292 17.4993C15.1583 18.0784 14.859 18.7076 14.6435 19.3746L5.81836 19.375C5.30058 19.375 4.88086 19.7948 4.88086 20.3125V21.4466C4.88086 22.2663 5.23835 23.045 5.85981 23.5793C7.43242 24.9314 9.80243 25.6264 13.0015 25.6264C13.75 25.6264 14.4532 25.5884 15.1116 25.5128C15.4227 26.1379 15.815 26.7176 16.2728 27.2383C15.2701 27.4141 14.1788 27.5014 13.0015 27.5014C9.38956 27.5014 6.59103 26.6806 4.63745 25.001C3.60167 24.1106 3.00586 22.8126 3.00586 21.4466V20.3125C3.00586 18.7591 4.26506 17.5 5.81836 17.5L15.5292 17.4993ZM26.513 19.0654L19.5667 26.0116C20.3675 26.5565 21.3347 26.8751 22.3765 26.8751C25.1378 26.8751 27.3765 24.6365 27.3765 21.8751C27.3765 20.8334 27.0578 19.8661 26.513 19.0654ZM22.3765 16.8751C19.615 16.8751 17.3765 19.1136 17.3765 21.8751C17.3765 22.9168 17.695 23.884 18.24 24.6848L25.1861 17.7386C24.3853 17.1936 23.4181 16.8751 22.3765 16.8751ZM13.0015 2.50586C16.4532 2.50586 19.2515 5.30408 19.2515 8.75586C19.2515 12.2076 16.4532 15.0059 13.0015 15.0059C9.54965 15.0059 6.75142 12.2076 6.75142 8.75586C6.75142 5.30408 9.54965 2.50586 13.0015 2.50586ZM13.0015 4.38086C10.5852 4.38086 8.62642 6.33962 8.62642 8.75586C8.62642 11.1721 10.5852 13.1309 13.0015 13.1309C15.4177 13.1309 17.3765 11.1721 17.3765 8.75586C17.3765 6.33962 15.4177 4.38086 13.0015 4.38086Z" fill="white"/>
</svg>
