<svg width="30" height="30" viewBox="0 0 30 30" fill="none" xmlns="http://www.w3.org/2000/svg">
<path d="M21.2879 13.7879C21.654 13.4218 21.654 12.8282 21.2879 12.4621C20.9218 12.096 20.3282 12.096 19.9621 12.4621L13.75 18.6741L11.2879 16.2121C10.9218 15.846 10.3282 15.846 9.96209 16.2121C9.59597 16.5782 9.59597 17.1718 9.96209 17.5379L13.0871 20.6629C13.4532 21.029 14.0468 21.029 14.4129 20.6629L21.2879 13.7879ZM19.9925 5.10561C19.8866 3.64891 18.6713 2.5 17.1875 2.5H12.8125C11.3651 2.5 10.173 3.5934 10.0172 4.9993L7.8125 5C6.2592 5 5 6.2592 5 7.8125V24.6875C5 26.2407 6.2592 27.5 7.8125 27.5H22.1875C23.7407 27.5 25 26.2407 25 24.6875V7.8125C25 6.2592 23.7407 5 22.1875 5L19.9827 4.9993C19.9866 5.03455 19.9899 5.06999 19.9925 5.10561ZM19.9935 5.11994L20 5.3125C20 5.24778 19.9979 5.18356 19.9935 5.11994ZM12.8125 8.125H17.1875C18.1625 8.125 19.0218 7.62884 19.5263 6.8752L22.1875 6.875C22.7052 6.875 23.125 7.29474 23.125 7.8125V24.6875C23.125 25.2052 22.7052 25.625 22.1875 25.625H7.8125C7.29474 25.625 6.875 25.2052 6.875 24.6875V7.8125C6.875 7.29474 7.29474 6.875 7.8125 6.875L10.4738 6.87525C10.9783 7.62887 11.8375 8.125 12.8125 8.125ZM12.8125 4.375H17.1875C17.7052 4.375 18.125 4.79474 18.125 5.3125C18.125 5.83026 17.7052 6.25 17.1875 6.25H12.8125C12.2947 6.25 11.875 5.83026 11.875 5.3125C11.875 4.79474 12.2947 4.375 12.8125 4.375Z" fill="white"/>
</svg>
