<svg width="30" height="30" viewBox="0 0 30 30" fill="none" xmlns="http://www.w3.org/2000/svg">
<path d="M6.875 10C6.875 8.27411 8.27411 6.875 10 6.875C11.7259 6.875 13.125 8.27411 13.125 10C13.125 11.7259 11.7259 13.125 10 13.125C8.27411 13.125 6.875 11.7259 6.875 10ZM10 5C7.23857 5 5 7.23857 5 10C5 12.7614 7.23857 15 10 15C12.7614 15 15 12.7614 15 10C15 7.23857 12.7614 5 10 5ZM19.375 11.25C19.375 10.2145 20.2145 9.375 21.25 9.375C22.2855 9.375 23.125 10.2145 23.125 11.25C23.125 12.2855 22.2855 13.125 21.25 13.125C20.2145 13.125 19.375 12.2855 19.375 11.25ZM21.25 7.5C19.1789 7.5 17.5 9.17894 17.5 11.25C17.5 13.3211 19.1789 15 21.25 15C23.3211 15 25 13.3211 25 11.25C25 9.17894 23.3211 7.5 21.25 7.5ZM17.8105 23.7971C18.6884 24.154 19.8146 24.375 21.2512 24.375C24.1041 24.375 25.7334 23.5034 26.6224 22.4276C27.0537 21.9055 27.2732 21.3784 27.3846 20.9744C27.4401 20.7726 27.4692 20.6 27.4844 20.4713C27.492 20.4068 27.4963 20.3526 27.4985 20.3109C27.4996 20.29 27.5004 20.2721 27.5008 20.2574L27.5011 20.2379L27.5012 20.2299V20.2264V20.2233C27.5012 18.7193 26.282 17.5 24.778 17.5H17.7245C17.6901 17.5 17.656 17.5006 17.6221 17.5019C18.1145 18.0157 18.4734 18.6587 18.6425 19.375H24.778C25.2425 19.375 25.6198 19.7482 25.6261 20.2111C25.6257 20.2182 25.6246 20.2319 25.6224 20.2514C25.6168 20.2984 25.6044 20.3769 25.5769 20.4765C25.5221 20.6753 25.4096 20.9516 25.177 21.2331C24.7379 21.7645 23.7109 22.5 21.2512 22.5C20.0261 22.5 19.1565 22.3175 18.5378 22.0688C18.4039 22.5689 18.1815 23.1723 17.8105 23.7971ZM5.3125 17.5C3.7592 17.5 2.5 18.7592 2.5 20.3125V20.6264V20.6277L2.50001 20.631L2.50009 20.6389L2.50044 20.6596C2.5008 20.6758 2.50146 20.6964 2.50262 20.7214C2.50495 20.7711 2.50931 20.8381 2.51747 20.9198C2.53376 21.0826 2.56541 21.3062 2.62706 21.5705C2.74994 22.097 2.99568 22.8005 3.48979 23.5064C4.51333 24.9686 6.46473 26.25 10 26.25C13.5352 26.25 15.4866 24.9686 16.5103 23.5064C17.0044 22.8005 17.2501 22.097 17.3729 21.5705C17.4346 21.3062 17.4663 21.0826 17.4825 20.9198C17.4908 20.8381 17.495 20.7711 17.4974 20.7214C17.4985 20.6964 17.4993 20.6758 17.4995 20.6596L17.4999 20.6389L17.5 20.631V20.6277V20.3125C17.5 18.7592 16.2408 17.5 14.6875 17.5H5.3125ZM4.37559 20.634L4.375 20.6184V20.3125C4.375 19.7948 4.79474 19.375 5.3125 19.375H14.6875C15.2052 19.375 15.625 19.7948 15.625 20.3125V20.6182L15.6244 20.634C15.6235 20.6528 15.6215 20.6866 15.6169 20.7331C15.6075 20.8265 15.5879 20.9691 15.547 21.1444C15.4648 21.4967 15.3004 21.9651 14.9741 22.4311C14.3571 23.3126 13.0273 24.375 10 24.375C6.97277 24.375 5.64292 23.3126 5.02584 22.4311C4.69964 21.9651 4.53523 21.4967 4.45301 21.1444C4.41213 20.9691 4.3925 20.8265 4.38316 20.7331C4.37851 20.6866 4.37646 20.6528 4.37559 20.634Z" fill="white"/>
</svg>
