<svg width="30" height="29" viewBox="0 0 30 29" fill="none" xmlns="http://www.w3.org/2000/svg">
<path d="M12.951 7.58537H17.0485C17.0485 6.45386 16.1313 5.53659 14.9998 5.53659C13.8682 5.53659 12.951 6.45386 12.951 7.58537ZM11.4144 7.58537C11.4144 5.60522 13.0196 4 14.9998 4C16.9799 4 18.5851 5.60522 18.5851 7.58537H24.4754C24.8997 7.58537 25.2437 7.92935 25.2437 8.35366C25.2437 8.77797 24.8997 9.12195 24.4754 9.12195H23.1241L21.9235 21.5285C21.733 23.4976 20.0782 25 18.0999 25H11.8996C9.92139 25 8.2666 23.4976 8.07604 21.5285L6.8754 9.12195H5.52415C5.09984 9.12195 4.75586 8.77797 4.75586 8.35366C4.75586 7.92935 5.09984 7.58537 5.52415 7.58537H11.4144ZM13.4632 12.4512C13.4632 12.0269 13.1192 11.6829 12.6949 11.6829C12.2706 11.6829 11.9266 12.0269 11.9266 12.4512V20.1341C11.9266 20.5584 12.2706 20.9024 12.6949 20.9024C13.1192 20.9024 13.4632 20.5584 13.4632 20.1341V12.4512ZM17.3046 11.6829C17.7289 11.6829 18.0729 12.0269 18.0729 12.4512V20.1341C18.0729 20.5584 17.7289 20.9024 17.3046 20.9024C16.8803 20.9024 16.5363 20.5584 16.5363 20.1341V12.4512C16.5363 12.0269 16.8803 11.6829 17.3046 11.6829ZM9.60549 21.3805C9.71982 22.562 10.7127 23.4634 11.8996 23.4634H18.0999C19.2868 23.4634 20.2797 22.562 20.394 21.3805L21.5803 9.12195H8.41916L9.60549 21.3805Z" fill="#ED5554"/>
</svg>
